<svg 
 xmlns="http://www.w3.org/2000/svg"
 xmlns:xlink="http://www.w3.org/1999/xlink"
 width="0.556in" height="0.556in">
<path fill-rule="evenodd"  fill="rgb(224, 224, 226)"
 d="M36.652,8.096 L0.003,8.096 C0.003,8.096 0.034,29.926 0.003,31.134 C0.003,31.144 0.003,31.155 0.003,31.165 C0.034,32.327 0.511,33.415 1.344,34.227 C2.179,35.042 3.281,35.490 4.447,35.490 L23.805,35.490 C23.961,35.490 24.110,35.429 24.221,35.319 L37.067,22.472 C37.178,22.362 37.239,22.212 37.239,22.057 L37.239,8.683 C37.239,8.359 36.976,8.096 36.652,8.096 Z"/>
<path fill-rule="evenodd"  fill="rgb(198, 197, 202)"
 d="M10.622,23.448 L13.021,23.448 L14.944,17.411 L24.259,8.096 L22.067,8.096 L12.753,17.411 L10.622,23.448 Z"/>
<path fill-rule="evenodd"  fill="rgb(198, 197, 202)"
 d="M36.652,8.097 L34.695,8.097 L34.695,24.844 L37.067,22.472 C37.177,22.362 37.239,22.212 37.239,22.057 L37.239,8.684 C37.239,8.359 36.976,8.097 36.652,8.097 Z"/>
<path fill-rule="evenodd"  fill="rgb(60, 81, 86)"
 d="M26.750,23.929 L10.492,23.929 C10.167,23.929 9.904,23.666 9.904,23.341 C9.904,23.017 10.167,22.754 10.492,22.754 L26.750,22.754 C27.075,22.754 27.337,23.017 27.337,23.341 C27.337,23.666 27.075,23.929 26.750,23.929 Z"/>
<path fill-rule="evenodd"  fill="rgb(145, 145, 145)"
 d="M4.462,26.480 C4.715,26.480 4.963,26.502 5.205,26.542 L5.205,2.288 C5.205,1.964 4.942,1.701 4.618,1.701 C2.071,1.701 -0.000,3.772 -0.000,6.319 L-0.000,30.365 C0.302,28.171 2.184,26.480 4.462,26.480 Z"/>
<path fill-rule="evenodd"  fill="rgb(255, 208, 57)"
 d="M31.871,7.536 L28.345,4.010 C28.235,3.900 28.086,3.838 27.930,3.838 C27.774,3.838 27.625,3.900 27.515,4.010 L14.529,16.996 C14.522,17.004 14.515,17.012 14.507,17.020 L18.927,21.311 L31.871,8.367 C32.100,8.137 32.100,7.766 31.871,7.536 Z"/>
<path fill-rule="evenodd"  fill="rgb(255, 163, 4)"
 d="M17.314,19.745 L18.927,21.311 L31.871,8.367 C32.100,8.137 32.100,7.766 31.871,7.536 L30.696,6.361 L17.314,19.745 Z"/>
<path fill-rule="evenodd"  fill="rgb(255, 200, 159)"
 d="M14.509,17.022 C14.457,17.079 14.415,17.146 14.389,17.221 L12.467,22.665 C12.392,22.878 12.446,23.116 12.606,23.276 C12.718,23.388 12.868,23.448 13.021,23.448 C13.086,23.448 13.152,23.437 13.216,23.414 L18.660,21.492 C18.765,21.455 18.854,21.389 18.922,21.306 L14.509,17.022 Z"/>
<path fill-rule="evenodd"  fill="rgb(247, 176, 129)"
 d="M13.021,23.448 C13.086,23.448 13.152,23.437 13.216,23.414 L18.660,21.492 C18.765,21.455 18.854,21.389 18.922,21.306 L17.312,19.743 L12.947,21.305 L12.467,22.665 C12.392,22.878 12.446,23.116 12.606,23.275 C12.718,23.388 12.868,23.448 13.021,23.448 Z"/>
<path fill-rule="evenodd"  fill="rgb(60, 81, 86)"
 d="M13.021,23.448 C13.086,23.448 13.152,23.437 13.216,23.414 L16.649,22.202 L13.674,19.248 L12.467,22.665 C12.392,22.878 12.446,23.116 12.606,23.275 C12.718,23.388 12.868,23.448 13.021,23.448 Z"/>
<path fill-rule="evenodd"  fill="rgb(48, 65, 68)"
 d="M15.004,20.569 L12.947,21.305 L12.467,22.665 C12.392,22.878 12.446,23.116 12.606,23.276 C12.718,23.388 12.868,23.448 13.021,23.448 C13.086,23.448 13.152,23.437 13.216,23.414 L16.649,22.202 L15.004,20.569 Z"/>
<path fill-rule="evenodd"  fill="rgb(255, 97, 55)"
 d="M33.779,5.629 L30.253,2.103 C30.023,1.874 29.652,1.874 29.423,2.103 L27.101,4.424 L31.456,8.782 L33.779,6.459 C33.889,6.349 33.951,6.200 33.951,6.044 C33.951,5.888 33.889,5.739 33.779,5.629 Z"/>
<path fill-rule="evenodd"  fill="rgb(224, 79, 50)"
 d="M29.866,7.191 L30.418,7.743 L31.456,8.781 L33.779,6.459 C33.889,6.349 33.951,6.200 33.951,6.044 C33.951,5.888 33.889,5.739 33.779,5.629 L32.604,4.454 L29.866,7.191 Z"/>
<path fill-rule="evenodd"  fill="rgb(84, 111, 122)"
 d="M35.357,2.349 L33.533,0.524 C33.195,0.186 32.745,-0.000 32.267,-0.000 C31.789,-0.000 31.339,0.186 31.001,0.524 L29.838,1.687 L29.422,2.103 L28.999,2.526 L33.364,6.874 L33.987,6.251 L35.357,4.880 C35.695,4.542 35.881,4.092 35.881,3.614 C35.881,3.136 35.695,2.687 35.357,2.349 Z"/>
<path fill-rule="evenodd"  fill="rgb(71, 93, 99)"
 d="M29.007,2.519 L28.999,2.526 L30.302,3.823 L29.007,2.519 Z"/>
<path fill-rule="evenodd"  fill="rgb(71, 93, 99)"
 d="M35.357,2.349 L33.917,0.909 C34.153,1.222 34.282,1.601 34.282,2.001 C34.282,2.484 34.096,2.939 33.758,3.281 L32.388,4.666 L31.772,5.288 L33.364,6.874 L33.987,6.251 L35.357,4.880 C35.695,4.542 35.882,4.093 35.882,3.615 C35.882,3.136 35.695,2.687 35.357,2.349 Z"/>
<path fill-rule="evenodd"  fill="rgb(255, 202, 16)"
 d="M39.413,39.872 L19.424,39.872 C19.187,39.872 18.973,39.728 18.882,39.509 C18.791,39.290 18.841,39.037 19.009,38.869 L38.998,18.881 C39.166,18.713 39.418,18.663 39.637,18.754 C39.857,18.844 40.000,19.059 40.000,19.296 L40.000,39.284 C40.000,39.609 39.737,39.872 39.413,39.872 ZM35.168,28.706 L28.752,35.123 L35.168,35.123 L35.168,28.706 Z"/>
<path fill-rule="evenodd"  fill="rgb(255, 163, 4)"
 d="M39.637,18.754 C39.418,18.663 39.166,18.713 38.998,18.881 L37.456,20.423 L37.456,39.872 L39.413,39.872 C39.737,39.872 40.000,39.609 40.000,39.284 L40.000,19.296 C40.000,19.059 39.857,18.844 39.637,18.754 Z"/>
<path fill-rule="evenodd"  fill="rgb(201, 110, 20)"
 d="M40.000,25.893 L37.743,25.893 C37.418,25.893 37.155,26.156 37.155,26.480 C37.155,26.804 37.418,27.067 37.743,27.067 L40.000,27.067 L40.000,25.893 Z"/>
<path fill-rule="evenodd"  fill="rgb(201, 110, 20)"
 d="M40.000,28.836 L37.742,28.836 C37.418,28.836 37.155,29.099 37.155,29.424 C37.155,29.748 37.418,30.011 37.742,30.011 L40.000,30.011 L40.000,28.836 Z"/>
<path fill-rule="evenodd"  fill="rgb(201, 110, 20)"
 d="M40.000,31.780 L37.742,31.780 C37.418,31.780 37.155,32.042 37.155,32.367 C37.155,32.691 37.418,32.954 37.742,32.954 L40.000,32.954 L40.000,31.780 Z"/>
<path fill-rule="evenodd"  fill="rgb(201, 110, 20)"
 d="M40.000,34.723 L37.742,34.723 C37.418,34.723 37.155,34.986 37.155,35.310 C37.155,35.634 37.418,35.897 37.742,35.897 L40.000,35.897 L40.000,34.723 Z"/>
</svg>