<svg 
 xmlns="http://www.w3.org/2000/svg"
 xmlns:xlink="http://www.w3.org/1999/xlink"
 width="0.556in" height="0.556in">
<path fill-rule="evenodd"  fill="rgb(77, 77, 153)"
 d="M22.344,40.000 L17.656,40.000 C17.038,40.000 16.525,39.519 16.487,38.901 L16.384,37.182 C14.264,36.736 12.227,35.891 10.410,34.703 L9.174,35.794 C8.712,36.202 8.011,36.183 7.569,35.743 L4.255,32.429 C3.818,31.992 3.795,31.289 4.205,30.825 L5.297,29.589 C4.109,27.773 3.264,25.737 2.815,23.616 L1.099,23.513 C0.481,23.474 -0.000,22.963 -0.000,22.344 L-0.000,17.656 C-0.000,17.037 0.481,16.525 1.099,16.487 L2.815,16.384 C3.264,14.263 4.109,12.227 5.297,10.411 L4.205,9.175 C3.795,8.710 3.818,8.008 4.255,7.571 L7.569,4.256 C8.009,3.818 8.712,3.799 9.174,4.206 L10.410,5.297 C12.227,4.109 14.264,3.264 16.384,2.818 L16.487,1.099 C16.525,0.481 17.038,-0.000 17.656,-0.000 L22.344,-0.000 C22.962,-0.000 23.474,0.481 23.513,1.099 L23.616,2.818 C25.736,3.264 27.773,4.109 29.590,5.297 L30.826,4.206 C31.291,3.800 31.991,3.819 32.430,4.256 L35.745,7.571 C36.182,8.008 36.205,8.710 35.795,9.175 L34.703,10.411 C35.891,12.227 36.736,14.263 37.184,16.384 L38.901,16.487 C39.519,16.525 40.000,17.037 40.000,17.656 L40.000,22.344 C40.000,22.963 39.519,23.474 38.901,23.513 L37.184,23.616 C36.736,25.737 35.891,27.773 34.703,29.589 L35.795,30.825 C36.205,31.289 36.182,31.992 35.745,32.429 L32.430,35.743 C31.991,36.182 31.288,36.201 30.826,35.794 L29.590,34.703 C27.773,35.891 25.736,36.736 23.616,37.182 L23.513,38.901 C23.474,39.519 22.962,40.000 22.344,40.000 L22.344,40.000 Z"/>
<path fill-rule="evenodd"  fill="rgb(41, 41, 102)"
 d="M38.901,16.487 L37.184,16.384 C36.736,14.263 35.891,12.227 34.703,10.411 L35.795,9.175 C36.205,8.710 36.182,8.008 35.745,7.571 L32.430,4.256 C31.991,3.819 31.291,3.800 30.826,4.206 L29.590,5.297 C27.773,4.109 25.736,3.264 23.616,2.818 L23.513,1.099 C23.474,0.481 22.962,-0.000 22.344,-0.000 L20.000,-0.000 L20.000,40.000 L22.344,40.000 C22.962,40.000 23.474,39.519 23.513,38.901 L23.616,37.182 C25.736,36.736 27.773,35.891 29.590,34.703 L30.826,35.794 C31.288,36.201 31.991,36.182 32.430,35.743 L35.745,32.429 C36.182,31.992 36.205,31.289 35.795,30.825 L34.703,29.589 C35.891,27.773 36.736,25.737 37.184,23.616 L38.901,23.513 C39.519,23.474 40.000,22.963 40.000,22.344 L40.000,17.656 C40.000,17.037 39.519,16.525 38.901,16.487 L38.901,16.487 Z"/>
<path fill-rule="evenodd"  fill="rgb(153, 255, 255)"
 d="M16.484,27.031 C16.484,26.383 15.960,25.859 15.313,25.859 C14.667,25.859 14.141,25.334 14.141,24.687 L14.141,22.344 C14.141,21.440 13.788,20.623 13.226,20.000 C13.788,19.376 14.141,18.560 14.141,17.656 L14.141,15.312 C14.141,14.666 14.667,14.141 15.313,14.141 C15.960,14.141 16.484,13.616 16.484,12.969 C16.484,12.321 15.960,11.797 15.313,11.797 C13.374,11.797 11.797,13.374 11.797,15.312 L11.797,17.656 C11.797,18.303 11.270,18.828 10.625,18.828 C9.977,18.828 9.453,19.352 9.453,20.000 C9.453,20.648 9.977,21.172 10.625,21.172 C11.270,21.172 11.797,21.697 11.797,22.344 L11.797,24.687 C11.797,26.626 13.374,28.203 15.313,28.203 C15.960,28.203 16.484,27.679 16.484,27.031 Z"/>
<path fill-rule="evenodd"  fill="rgb(102, 230, 255)"
 d="M30.547,20.000 C30.547,19.352 30.023,18.828 29.375,18.828 C28.729,18.828 28.203,18.303 28.203,17.656 L28.203,15.312 C28.203,13.374 26.626,11.797 24.687,11.797 C24.040,11.797 23.516,12.321 23.516,12.969 C23.516,13.616 24.040,14.141 24.687,14.141 C25.333,14.141 25.859,14.666 25.859,15.312 L25.859,17.656 C25.859,18.560 26.211,19.376 26.774,20.000 C26.211,20.623 25.859,21.440 25.859,22.344 L25.859,24.687 C25.859,25.334 25.333,25.859 24.687,25.859 C24.040,25.859 23.516,26.383 23.516,27.031 C23.516,27.679 24.040,28.203 24.687,28.203 C26.626,28.203 28.203,26.626 28.203,24.687 L28.203,22.344 C28.203,21.697 28.729,21.172 29.375,21.172 C30.023,21.172 30.547,20.648 30.547,20.000 Z"/>
<path fill-rule="evenodd"  fill="rgb(153, 255, 255)"
 d="M18.828,20.000 C18.828,20.647 18.303,21.172 17.656,21.172 C17.009,21.172 16.484,20.647 16.484,20.000 C16.484,19.353 17.009,18.828 17.656,18.828 C18.303,18.828 18.828,19.353 18.828,20.000 Z"/>
<path fill-rule="evenodd"  fill="rgb(102, 230, 255)"
 d="M23.516,20.000 C23.516,20.647 22.991,21.172 22.344,21.172 C21.696,21.172 21.172,20.647 21.172,20.000 C21.172,19.353 21.696,18.828 22.344,18.828 C22.991,18.828 23.516,19.353 23.516,20.000 Z"/>
</svg>