<svg 
 xmlns="http://www.w3.org/2000/svg"
 xmlns:xlink="http://www.w3.org/1999/xlink"
 width="0.556in" height="0.556in">
<path fill-rule="evenodd"  fill="rgb(0, 204, 242)"
 d="M16.063,7.434 C14.585,9.249 12.614,10.552 10.363,11.200 C9.628,11.412 9.203,12.180 9.415,12.915 C9.615,13.609 10.309,14.026 11.005,13.893 C11.047,13.885 11.089,13.875 11.131,13.863 C12.276,13.533 13.362,13.067 14.373,12.477 L16.063,7.434 Z"/>
<path fill-rule="evenodd"  fill="rgb(0, 204, 242)"
 d="M20.008,15.957 L21.517,11.646 C21.973,11.717 22.430,11.753 22.886,11.753 C24.940,11.753 26.958,11.042 28.580,9.695 L28.767,9.540 C29.345,9.060 29.464,8.202 29.004,7.607 C28.522,6.983 27.622,6.887 27.021,7.387 L26.809,7.563 C26.448,7.863 26.058,8.117 25.649,8.324 C24.051,9.129 22.131,8.712 20.914,7.401 C20.318,6.759 19.466,6.352 18.507,6.352 C17.011,6.352 15.704,7.362 15.327,8.810 L13.468,15.957 L20.008,15.957 Z"/>
<path fill-rule="evenodd"  fill="rgb(255, 190, 82)"
 d="M13.467,15.957 L8.004,30.280 C7.649,31.211 8.254,32.229 9.241,32.362 L9.277,32.367 C9.953,32.459 10.604,32.116 10.907,31.515 C12.452,28.452 17.013,19.436 17.013,19.436 L18.865,19.436 L17.921,25.374 C17.781,26.253 18.460,27.048 19.350,27.048 C20.000,27.048 20.570,26.615 20.745,25.989 L22.520,19.611 C23.031,17.775 21.650,15.957 19.743,15.957 L18.898,15.957 L13.467,15.957 Z"/>
<path fill-rule="evenodd"  fill="rgb(255, 99, 113)"
 d="M39.219,17.376 L32.485,18.731 L33.948,20.194 L29.268,24.874 L25.948,21.554 L10.521,36.978 L12.762,39.219 L25.948,26.035 L29.268,29.355 L36.189,22.435 L37.863,24.108 L39.219,17.376 Z"/>
<path fill-rule="evenodd"  fill="rgb(255, 99, 113)"
 d="M39.219,17.376 L32.485,18.731 L33.948,20.194 L29.268,24.874 L25.948,21.554 L10.521,36.978 L12.762,39.219 L25.948,26.035 L29.268,29.355 L36.189,22.435 L37.863,24.108 L39.219,17.376 Z"/>
<path fill-rule="evenodd"  fill="rgb(254, 210, 164)"
 d="M23.320,3.567 C23.320,5.106 22.073,6.353 20.534,6.353 C18.996,6.353 17.748,5.106 17.748,3.567 C17.748,2.029 18.996,0.781 20.534,0.781 C22.073,0.781 23.320,2.029 23.320,3.567 Z"/>
<path fill-rule="evenodd"  fill="rgb(255, 147, 87)"
 d="M6.853,21.819 L1.079,16.046 C0.682,15.649 0.682,15.006 1.079,14.610 L5.270,10.419 C5.667,10.022 6.310,10.022 6.707,10.419 L12.481,16.192 C12.878,16.589 12.878,17.232 12.481,17.628 L8.290,21.819 C7.893,22.216 7.250,22.216 6.853,21.819 Z"/>
<path fill-rule="evenodd"  fill="rgb(255, 255, 255)"
 d="M5.925,17.024 L5.686,16.785 C5.266,16.365 5.266,15.684 5.686,15.265 L6.685,14.266 L8.443,16.025 L7.445,17.024 C7.025,17.443 6.344,17.443 5.925,17.024 Z"/>
<path fill-rule="evenodd"  fill="rgb(0, 0, 0)"
 d="M38.629,24.263 C38.573,24.545 38.365,24.773 38.089,24.856 C37.814,24.940 37.514,24.865 37.311,24.661 L36.189,23.540 L29.820,29.908 C29.515,30.213 29.021,30.213 28.715,29.908 L25.947,27.140 L22.042,31.044 C21.737,31.349 21.243,31.349 20.937,31.044 C20.632,30.739 20.632,30.245 20.937,29.940 L25.395,25.483 C25.700,25.178 26.195,25.178 26.500,25.483 L29.268,28.250 L35.637,21.882 C35.942,21.577 36.437,21.577 36.742,21.882 L37.385,22.525 L38.221,18.373 L34.068,19.209 L34.501,19.642 C34.806,19.947 34.806,20.441 34.501,20.746 L29.820,25.426 C29.674,25.573 29.475,25.655 29.268,25.655 C29.061,25.655 28.862,25.573 28.716,25.426 L25.948,22.659 L11.626,36.978 L12.762,38.114 L16.518,34.359 C16.823,34.054 17.318,34.054 17.623,34.359 C17.928,34.664 17.928,35.159 17.623,35.464 L13.315,39.771 C13.162,39.924 12.962,40.000 12.762,40.000 C12.562,40.000 12.362,39.924 12.210,39.771 L9.968,37.531 C9.822,37.384 9.740,37.185 9.740,36.978 C9.740,36.771 9.822,36.572 9.968,36.426 L18.672,27.723 C18.281,27.599 17.928,27.367 17.655,27.048 C17.231,26.551 17.046,25.896 17.149,25.251 L17.950,20.217 L17.493,20.217 C16.568,22.047 12.939,29.222 11.604,31.867 C11.200,32.669 10.377,33.163 9.493,33.163 C9.387,33.163 9.280,33.156 9.173,33.141 L9.136,33.136 C8.428,33.041 7.813,32.633 7.448,32.019 C7.083,31.405 7.020,30.670 7.274,30.002 L7.756,28.740 C7.909,28.337 8.361,28.134 8.764,28.288 C9.167,28.442 9.369,28.893 9.216,29.297 L8.734,30.559 C8.650,30.778 8.671,31.020 8.791,31.221 C8.911,31.423 9.113,31.557 9.346,31.588 L9.383,31.593 C9.724,31.640 10.056,31.467 10.209,31.164 C11.737,28.135 16.270,19.173 16.316,19.083 C16.449,18.820 16.718,18.655 17.013,18.655 L18.865,18.655 C19.094,18.655 19.311,18.755 19.459,18.929 C19.608,19.103 19.673,19.333 19.637,19.558 L18.692,25.496 C18.650,25.760 18.769,25.946 18.843,26.034 C18.918,26.121 19.083,26.267 19.350,26.267 C19.648,26.267 19.912,26.067 19.992,25.780 L21.767,19.402 C21.945,18.764 21.817,18.095 21.416,17.568 C21.015,17.041 20.406,16.738 19.743,16.738 L18.898,16.738 L14.006,16.738 L11.443,23.456 C11.324,23.768 11.028,23.959 10.713,23.959 C10.620,23.959 10.526,23.943 10.435,23.908 C10.032,23.754 9.829,23.303 9.983,22.900 L11.012,20.202 L8.842,22.372 C8.503,22.711 8.051,22.898 7.571,22.898 C7.091,22.898 6.640,22.711 6.301,22.372 L0.526,16.598 C0.187,16.259 -0.000,15.808 -0.000,15.328 C-0.000,14.848 0.187,14.397 0.526,14.057 L2.622,11.962 L4.718,9.866 C5.419,9.166 6.559,9.166 7.259,9.866 L8.861,11.467 C9.130,10.990 9.579,10.613 10.147,10.449 C12.244,9.845 14.080,8.632 15.457,6.941 C15.486,6.906 15.517,6.875 15.549,6.846 C16.108,6.255 16.839,5.836 17.650,5.662 C17.221,5.073 16.967,4.349 16.967,3.566 C16.967,1.600 18.567,-0.000 20.534,-0.000 C22.501,-0.000 24.101,1.600 24.101,3.566 C24.101,5.166 23.042,6.523 21.588,6.974 C22.587,7.963 24.092,8.234 25.297,7.626 C25.657,7.444 25.998,7.221 26.310,6.962 L26.521,6.786 C26.978,6.407 27.554,6.234 28.144,6.299 C28.734,6.364 29.259,6.659 29.622,7.130 C30.339,8.057 30.182,9.380 29.266,10.141 L29.080,10.296 C27.341,11.739 25.142,12.535 22.886,12.535 C22.608,12.535 22.328,12.522 22.047,12.497 L21.029,15.406 C21.667,15.644 22.232,16.059 22.660,16.623 C23.359,17.542 23.582,18.708 23.273,19.820 L21.999,24.398 L25.395,21.002 C25.542,20.855 25.740,20.773 25.947,20.773 C26.155,20.773 26.353,20.855 26.500,21.002 L29.268,23.769 L32.843,20.194 L31.932,19.283 C31.729,19.080 31.654,18.781 31.737,18.505 C31.820,18.229 32.048,18.022 32.331,17.965 L39.064,16.610 C39.321,16.559 39.586,16.639 39.771,16.823 C39.956,17.008 40.036,17.274 39.985,17.530 L38.629,24.263 ZM13.181,13.954 C12.747,14.142 12.303,14.311 11.852,14.458 L12.803,15.409 L13.181,13.954 ZM1.631,15.162 C1.574,15.219 1.563,15.283 1.563,15.328 C1.563,15.372 1.574,15.436 1.631,15.493 L7.406,21.267 C7.462,21.324 7.527,21.335 7.571,21.335 C7.616,21.335 7.680,21.324 7.737,21.267 L9.280,19.724 L7.491,17.935 C7.243,18.055 6.969,18.118 6.685,18.118 C6.189,18.118 5.723,17.925 5.372,17.575 L5.372,17.575 L5.133,17.336 C4.783,16.985 4.590,16.519 4.590,16.024 C4.590,15.740 4.653,15.466 4.773,15.217 L3.174,13.619 L1.631,15.162 ZM7.338,16.024 L6.685,15.370 L6.238,15.816 C6.164,15.891 6.152,15.978 6.152,16.024 C6.152,16.069 6.164,16.156 6.238,16.231 L6.477,16.470 L6.477,16.470 C6.552,16.545 6.639,16.556 6.685,16.556 C6.730,16.556 6.817,16.545 6.892,16.470 L7.338,16.024 ZM9.002,13.819 L6.154,10.971 C6.109,10.925 6.048,10.902 5.989,10.902 C5.928,10.902 5.868,10.925 5.823,10.971 L4.279,12.514 L5.805,14.040 L6.132,13.713 C6.437,13.408 6.932,13.408 7.237,13.713 L8.996,15.471 C9.301,15.776 9.301,16.271 8.996,16.576 L8.669,16.903 L10.385,18.619 L11.929,17.076 C12.020,16.984 12.020,16.836 11.929,16.744 L9.469,14.286 C9.292,14.156 9.134,13.999 9.002,13.819 ZM10.580,11.951 C10.259,12.043 10.074,12.379 10.166,12.699 C10.179,12.744 10.198,12.787 10.220,12.827 L10.449,13.056 C10.570,13.125 10.715,13.154 10.859,13.126 C10.877,13.122 10.896,13.118 10.914,13.113 C11.887,12.833 12.822,12.445 13.700,11.959 L14.141,10.263 C13.062,11.009 11.864,11.580 10.580,11.951 ZM22.538,3.566 C22.538,2.461 21.639,1.562 20.534,1.562 C19.429,1.562 18.530,2.461 18.530,3.566 C18.530,4.671 19.429,5.570 20.534,5.570 C21.639,5.570 22.538,4.671 22.538,3.566 ZM21.637,10.874 C22.055,10.939 22.475,10.972 22.886,10.972 C24.778,10.972 26.623,10.305 28.081,9.094 L28.267,8.940 C28.529,8.722 28.582,8.339 28.386,8.085 C28.284,7.953 28.137,7.870 27.973,7.852 C27.808,7.834 27.647,7.882 27.520,7.988 L27.308,8.164 C26.906,8.498 26.466,8.786 26.001,9.021 C24.136,9.961 21.809,9.514 20.341,7.932 C19.862,7.417 19.211,7.133 18.507,7.133 C17.367,7.133 16.370,7.903 16.083,9.006 L14.478,15.176 L18.898,15.176 L19.454,15.176 L20.780,11.388 C20.904,11.033 21.265,10.816 21.637,10.874 Z"/>
<path fill-rule="evenodd"  fill="rgb(0, 0, 0)"
 d="M19.295,31.935 C19.089,31.935 18.888,32.019 18.743,32.164 C18.597,32.309 18.514,32.511 18.514,32.716 C18.514,32.923 18.597,33.123 18.743,33.269 C18.888,33.415 19.089,33.498 19.295,33.498 C19.500,33.498 19.702,33.415 19.847,33.269 C19.993,33.123 20.076,32.923 20.076,32.716 C20.076,32.511 19.993,32.309 19.847,32.164 C19.702,32.019 19.500,31.935 19.295,31.935 Z"/>
<path fill-rule="evenodd"  fill="rgb(0, 0, 0)"
 d="M9.598,26.884 C9.803,26.884 10.005,26.800 10.150,26.655 C10.296,26.510 10.379,26.308 10.379,26.103 C10.379,25.897 10.296,25.696 10.150,25.550 C10.004,25.405 9.803,25.321 9.598,25.321 C9.392,25.321 9.191,25.405 9.045,25.550 C8.900,25.696 8.817,25.897 8.817,26.103 C8.817,26.308 8.900,26.510 9.045,26.655 C9.191,26.800 9.392,26.884 9.598,26.884 Z"/>
</svg>