<svg 
 xmlns="http://www.w3.org/2000/svg"
 xmlns:xlink="http://www.w3.org/1999/xlink"
 width="0.5in" height="0.5in">
<path fill-rule="evenodd"  stroke="rgb(45, 116, 255)" stroke-width="2px" stroke-linecap="butt" stroke-linejoin="miter" fill="none"
 d="M33.000,16.167 C33.006,18.366 32.492,20.536 31.500,22.500 C30.324,24.853 28.516,26.832 26.279,28.215 C24.042,29.599 21.464,30.332 18.833,30.333 C16.634,30.339 14.463,29.825 12.500,28.833 L3.000,32.000 L6.167,22.500 C5.175,20.536 4.661,18.366 4.667,16.167 C4.668,13.536 5.401,10.958 6.784,8.721 C8.168,6.484 10.147,4.676 12.500,3.500 C14.463,2.508 16.634,1.994 18.833,2.000 L19.667,2.000 C23.141,2.192 26.422,3.658 28.882,6.118 C31.342,8.578 32.808,11.859 33.000,15.333 L33.000,16.167 Z"/>
</svg>