<svg xmlns="http://www.w3.org/2000/svg" width="40.032" height="49.344">
    <path fill-rule="evenodd" fill="#2D74FF" d="M17.919 34.158h-6.157A1.995 1.995 0 0 1 9.9 32.87a1.98 1.98 0 0 1-.126-.788v-4.14a.511.511 0 0 1 .515-.515.515.515 0 0 1 .515.515v4.14a.953.953 0 0 0 .25.733.955.955 0 0 0 .708.314h6.157a1.26 1.26 0 0 0 1.279-1.047v-4.14a.511.511 0 0 1 .515-.515.511.511 0 0 1 .514.515v4.14a2.26 2.26 0 0 1-2.308 2.076z"/>
    <path fill-rule="evenodd" fill="#2D74FF" d="M25.67 16.686a10.78 10.78 0 0 1-2.551 5.528 11.275 11.275 0 0 0-2.833 5.39 1.03 1.03 0 0 1-1.01.852h-8.55a1.03 1.03 0 0 1-1.012-.852 11.27 11.27 0 0 0-2.83-5.39A10.781 10.781 0 0 1 9.161 6.049a10.781 10.781 0 0 1 11.681 0 10.787 10.787 0 0 1 4.828 10.637zm-1.658-5.307a9.75 9.75 0 0 0-9.018-6.014c-1.872 0-3.705.54-5.279 1.555a9.744 9.744 0 0 0-4.364 9.617 9.752 9.752 0 0 0 2.307 4.997 12.269 12.269 0 0 1 3.069 5.884l8.544.009a12.303 12.303 0 0 1 3.074-5.892 9.751 9.751 0 0 0 1.667-10.156zM17.175 34.553A2.354 2.354 0 0 1 15 36.031a2.345 2.345 0 0 1-2.34-2.342.554.554 0 0 1 .514-.559h3.655a.515.515 0 0 1 .514.514c.005.312-.053.62-.168.909zm-3.399-.394a1.314 1.314 0 0 0 1.225.843 1.313 1.313 0 0 0 1.225-.843h-2.45zM9.581 30.723a.516.516 0 0 1-.391-.85.518.518 0 0 1 .339-.177l10.761-1.102a.52.52 0 0 1 .519.263.516.516 0 0 1-.219.706.5.5 0 0 1-.197.054L9.632 30.72a.436.436 0 0 1-.051.003zM9.66 32.838a.515.515 0 0 1-.052-1.029l10.682-1.095a.52.52 0 0 1 .519.263.503.503 0 0 1-.058.579.517.517 0 0 1-.358.182L9.712 32.835a.453.453 0 0 1-.052.003zM14.96 3.14a.518.518 0 0 1-.514-.515V.515a.515.515 0 1 1 1.029 0v2.11a.515.515 0 0 1-.515.515zM8.778 4.818a.512.512 0 0 1-.447-.257L7.278 2.734a.513.513 0 0 1 .19-.7.516.516 0 0 1 .701.186l1.054 1.826a.512.512 0 0 1-.445.772zM4.262 9.363a.52.52 0 0 1-.258-.069L2.179 8.239a.507.507 0 0 1-.251-.312.526.526 0 0 1 .049-.398.528.528 0 0 1 .321-.242.519.519 0 0 1 .396.061L4.52 8.402a.512.512 0 0 1 .239.579.517.517 0 0 1-.497.382zM2.625 15.556H.515a.515.515 0 1 1 0-1.029h2.11a.515.515 0 0 1 0 1.029zM2.478 22.793a.515.515 0 0 1-.258-.96l1.827-1.055a.528.528 0 0 1 .39-.051.514.514 0 0 1 .124.943l-1.826 1.055a.515.515 0 0 1-.257.068zM21.224 4.818a.513.513 0 0 1-.514-.515c0-.09.023-.179.068-.257l1.053-1.826a.516.516 0 0 1 .701-.186.512.512 0 0 1 .19.7l-1.054 1.827a.514.514 0 0 1-.444.257zM25.742 9.363a.514.514 0 0 1-.257-.961l1.826-1.054a.517.517 0 0 1 .581.027.51.51 0 0 1 .2.347.513.513 0 0 1-.267.517L26 9.294a.52.52 0 0 1-.258.069zM29.485 15.556h-2.11a.516.516 0 0 1-.515-.514.515.515 0 0 1 .515-.515h2.11a.511.511 0 0 1 .515.515.515.515 0 0 1-.515.514zM27.524 22.793a.525.525 0 0 1-.257-.068l-1.825-1.055a.514.514 0 1 1 .514-.892l1.826 1.055a.517.517 0 0 1 .056.854.515.515 0 0 1-.314.106z"/>
    <path fill-rule="evenodd" fill="#2D74FF" d="M12.783 28.456a.516.516 0 0 1-.501-.398L9.787 17.352a.515.515 0 0 1 .68-.599l2.333.866 1.934-1.169a.514.514 0 0 1 .533 0l1.935 1.169 2.331-.866a.528.528 0 0 1 .273-.024.521.521 0 0 1 .396.349.51.51 0 0 1 .011.274L17.72 28.058a.513.513 0 0 1-.938.155.516.516 0 0 1-.064-.389l2.275-9.774-1.665.618a.521.521 0 0 1-.446-.042L15 17.492l-1.88 1.137a.521.521 0 0 1-.446.042l-1.666-.618 2.279 9.772a.518.518 0 0 1-.504.631z"/>
</svg>
