<svg xmlns="http://www.w3.org/2000/svg" width="28.032" height="28.032">
    <defs>
        <linearGradient id="b" x1="87.158%" x2="0%" y1="49.025%" y2="0%">
            <stop offset="0%" stop-color="#A1B5D8" stop-opacity="0"/>
            <stop offset="31%" stop-color="#90A2BD" stop-opacity=".31"/>
            <stop offset="76%" stop-color="#7C8B9C" stop-opacity=".761"/>
            <stop offset="100%" stop-color="#748290"/>
        </linearGradient>
        <linearGradient id="c" x1="0%" x2="0%" y1="0%" y2="100%">
            <stop offset="0%" stop-color="#FAE100" stop-opacity="0"/>
            <stop offset="31%" stop-color="#FCA800" stop-opacity=".31"/>
            <stop offset="63%" stop-color="#FE7300" stop-opacity=".631"/>
            <stop offset="87%" stop-color="#FF5200" stop-opacity=".871"/>
            <stop offset="100%" stop-color="#FF4500"/>
        </linearGradient>
        <linearGradient id="d" x1="70.712%" x2="0%" y1="70.709%" y2="0%">
            <stop offset="0%" stop-color="#833AB4" stop-opacity="0"/>
            <stop offset="100%" stop-color="#833AB4"/>
        </linearGradient>
        <linearGradient id="e" x1="20.752%" x2="0%" y1="97.823%" y2="0%">
            <stop offset="0%" stop-color="#833AB4" stop-opacity="0"/>
            <stop offset="100%" stop-color="#833AB4"/>
        </linearGradient>
        <linearGradient id="f" x1="70.712%" x2="0%" y1="0%" y2="70.709%">
            <stop offset="0%" stop-color="#833AB4"/>
            <stop offset="9%" stop-color="#9C3495"/>
            <stop offset="29%" stop-color="#DC2546"/>
            <stop offset="39%" stop-color="#FD1D1D"/>
            <stop offset="56%" stop-color="#FC6831"/>
            <stop offset="69%" stop-color="#FC9B40"/>
            <stop offset="75%" stop-color="#FCAF45"/>
            <stop offset="78%" stop-color="#FDB750"/>
            <stop offset="87%" stop-color="#FECB6A"/>
            <stop offset="94%" stop-color="#FFD87A"/>
            <stop offset="100%" stop-color="#FFDC80"/>
        </linearGradient>
        <radialGradient id="a">
            <stop offset="0%" stop-color="#FAE100"/>
            <stop offset="5%" stop-color="#FADC04"/>
            <stop offset="12%" stop-color="#FBCE0E"/>
            <stop offset="18%" stop-color="#FCB720"/>
            <stop offset="25%" stop-color="#FE9838"/>
            <stop offset="31%" stop-color="#FF7950"/>
            <stop offset="49%" stop-color="#FF1C74"/>
            <stop offset="100%" stop-color="#6C1CD1"/>
        </radialGradient>
    </defs>
    <path fill-rule="evenodd" fill="url(#a)" d="M19.658 3.577A3.643 3.643 0 0 0 16.423.342a60.485 60.485 0 0 0-12.846 0A3.642 3.642 0 0 0 .342 3.577a60.476 60.476 0 0 0 0 12.845 3.643 3.643 0 0 0 3.235 3.235c4.278.456 8.568.456 12.846 0a3.644 3.644 0 0 0 3.235-3.235 60.476 60.476 0 0 0 0-12.845z"/>
    <path fill-rule="evenodd" fill="url(#b)" d="M18.57 4.3a3.232 3.232 0 0 0-2.871-2.87 53.615 53.615 0 0 0-11.398 0A3.232 3.232 0 0 0 1.43 4.3a53.624 53.624 0 0 0 0 11.399 3.231 3.231 0 0 0 2.871 2.87c3.796.405 7.603.405 11.398 0a3.231 3.231 0 0 0 2.871-2.87 53.624 53.624 0 0 0 0-11.399z"/>
    <path fill-rule="evenodd" fill="url(#c)" d="m.299 16.006.043.415a3.641 3.641 0 0 0 3.235 3.235c4.277.456 8.568.456 12.845 0a3.641 3.641 0 0 0 3.235-3.235l.043-.415H.299z"/>
    <path fill-rule="evenodd" fill="url(#d)" d="M19.657 16.423c.246-2.299.359-4.601.341-6.902l-4.572-4.572c-.571-.652-1.405-1.059-2.385-1.094a86.09 86.09 0 0 0-6.055 0c-1.674.058-2.845 1.183-3.145 2.838-.053.292-.085.587-.127.882v4.849c.023.157.057.314.068.472.067 1.006.48 1.868 1.143 2.451l4.652 4.651a60.325 60.325 0 0 0 6.846-.341 3.641 3.641 0 0 0 3.234-3.234z"/>
    <path fill-rule="evenodd" fill="url(#e)" d="M19.657 16.421a3.642 3.642 0 0 1-3.235 3.235 60.538 60.538 0 0 1-6.845.34l-4.645-4.644c.538.471 1.24.758 2.054.789 2.016.075 4.039.073 6.055.001 1.823-.066 3.142-1.415 3.199-3.239a92.316 92.316 0 0 0 0-5.812c-.026-.841-.321-1.581-.811-2.141l4.569 4.569a60.396 60.396 0 0 1-.341 6.902z"/>
    <path fill-rule="evenodd" fill="url(#d)" d="M12.36 7.834a3.203 3.203 0 1 0-4.525 4.526l7.411 7.411c.393-.034.785-.072 1.177-.114a3.641 3.641 0 0 0 3.235-3.235c.042-.392.08-.784.114-1.176L12.36 7.834zM19.961 12.154l-5.965-5.965a.76.76 0 1 0-1.066 1.067l6.925 6.925c.047-.676.082-1.352.106-2.027z"/>
    <path fill-rule="evenodd" fill="url(#f)" d="M16.24 12.905c-.057 1.823-1.376 3.173-3.199 3.238a82.02 82.02 0 0 1-6.054-.001c-1.823-.068-3.083-1.421-3.205-3.246-.011-.158-.045-.315-.068-.472V7.575c.042-.295.074-.59.127-.882.3-1.655 1.471-2.78 3.145-2.838a86.09 86.09 0 0 1 6.055 0c1.822.066 3.142 1.415 3.199 3.238a92.316 92.316 0 0 1 0 5.812zm-1.104-5.604c-.034-1.443-.923-2.325-2.367-2.356a130.967 130.967 0 0 0-5.5 0c-1.433.03-2.324.894-2.363 2.321a99.61 99.61 0 0 0 0 5.466c.039 1.427.93 2.271 2.363 2.324.91.034 1.822.007 2.733.007.922 0 1.846.028 2.767-.007 1.444-.053 2.333-.915 2.367-2.358a118.42 118.42 0 0 0 0-5.397z"/>
    <path fill-rule="evenodd" fill="#FFF" d="M16.24 12.905c-.057 1.823-1.376 3.173-3.199 3.238a82.02 82.02 0 0 1-6.054-.001c-1.823-.068-3.083-1.421-3.205-3.246-.011-.158-.045-.315-.068-.472V7.575c.042-.295.074-.59.127-.882.3-1.655 1.471-2.78 3.145-2.838a86.09 86.09 0 0 1 6.055 0c1.822.066 3.142 1.415 3.199 3.238a92.316 92.316 0 0 1 0 5.812zm-1.104-5.604c-.034-1.443-.923-2.325-2.367-2.356a130.967 130.967 0 0 0-5.5 0c-1.433.03-2.324.894-2.363 2.321a99.61 99.61 0 0 0 0 5.466c.039 1.427.93 2.271 2.363 2.324.91.034 1.822.007 2.733.007.922 0 1.846.028 2.767-.007 1.444-.053 2.333-.915 2.367-2.358a118.42 118.42 0 0 0 0-5.397z"/>
    <path fill-rule="evenodd" fill="#FFF" d="M10 13.203a3.203 3.203 0 1 1 0-6.406 3.203 3.203 0 0 1 0 6.406zm0-5.304a2.1 2.1 0 1 0 0 4.2 2.1 2.1 0 0 0 0-4.2zM14.153 6.649a.762.762 0 1 1-1.525 0 .762.762 0 0 1 1.525 0z"/>
</svg>
