<svg 
 xmlns="http://www.w3.org/2000/svg"
 xmlns:xlink="http://www.w3.org/1999/xlink"
 width="0.292in" height="0.292in">
<defs>
<linearGradient id="PSgrad_0" x1="0%" x2="42.342%" y1="0%" y2="90.593%">
  <stop offset="0%" stop-color="rgb(0,195,255)" stop-opacity="1" />
  <stop offset="100%" stop-color="rgb(0,176,237)" stop-opacity="1" />
</linearGradient>
<linearGradient id="PSgrad_1" x1="88.121%" x2="0%" y1="47.272%" y2="0%">
  <stop offset="0%" stop-color="rgb(0,176,237)" stop-opacity="0" />
  <stop offset="100%" stop-color="rgb(0,162,206)" stop-opacity="1" />
</linearGradient>
<linearGradient id="PSgrad_2" x1="0%" x2="0%" y1="0%" y2="100%">
  <stop offset="0%" stop-color="rgb(0,176,237)" stop-opacity="0" />
  <stop offset="100%" stop-color="rgb(0,162,206)" stop-opacity="1" />
</linearGradient>
<linearGradient id="PSgrad_3" x1="70.711%" x2="0%" y1="70.711%" y2="0%">
  <stop offset="0%" stop-color="rgb(0,176,237)" stop-opacity="0" />
  <stop offset="100%" stop-color="rgb(0,162,206)" stop-opacity="1" />
</linearGradient>

</defs>
<path fill-rule="evenodd"  fill="url(#PSgrad_0)"
 d="M16.423,19.657 C12.145,20.114 7.855,20.114 3.577,19.657 C1.872,19.475 0.524,18.128 0.342,16.422 C-0.114,12.145 -0.114,7.855 0.342,3.577 C0.524,1.871 1.872,0.524 3.577,0.342 C7.855,-0.114 12.145,-0.114 16.423,0.342 C18.128,0.524 19.476,1.871 19.658,3.577 C20.114,7.855 20.114,12.145 19.658,16.422 C19.476,18.128 18.128,19.475 16.423,19.657 Z"/>
<path fill-rule="evenodd"  fill="url(#PSgrad_1)"
 d="M18.570,4.301 C18.408,2.787 17.213,1.592 15.699,1.430 C11.904,1.025 8.097,1.025 4.301,1.430 C2.787,1.592 1.592,2.787 1.430,4.301 C1.025,8.096 1.025,11.903 1.430,15.699 C1.592,17.213 2.787,18.408 4.301,18.570 C8.097,18.975 11.904,18.975 15.699,18.570 C17.213,18.408 18.408,17.213 18.570,15.699 C18.975,11.903 18.975,8.096 18.570,4.301 L18.570,4.301 Z"/>
<path fill-rule="evenodd"  fill="url(#PSgrad_2)"
 d="M0.300,16.008 C0.314,16.146 0.328,16.284 0.343,16.423 C0.524,18.128 1.872,19.475 3.577,19.657 C7.855,20.114 12.145,20.114 16.423,19.657 C18.129,19.475 19.476,18.128 19.658,16.423 C19.672,16.284 19.687,16.146 19.701,16.008 L0.300,16.008 Z"/>
<path fill-rule="evenodd"  fill="url(#PSgrad_3)"
 d="M19.996,9.297 L15.844,5.146 C15.379,5.412 14.969,5.559 14.660,5.641 C14.487,5.688 14.345,5.713 14.243,5.727 C13.775,5.247 13.121,4.949 12.398,4.949 C10.974,4.949 9.820,6.103 9.820,7.527 C9.820,7.578 9.821,7.629 9.824,7.680 C9.831,7.803 9.847,7.925 9.871,8.043 C9.277,8.034 7.345,7.875 5.503,6.296 C5.503,6.296 5.503,6.296 5.503,6.296 L5.502,6.296 L4.634,5.427 C4.634,5.427 3.614,7.206 5.113,8.556 C5.179,8.629 5.251,8.701 5.330,8.773 C5.336,8.780 5.343,8.787 5.349,8.794 C5.153,8.780 4.561,8.721 4.219,8.480 C4.219,8.480 4.150,9.567 5.056,10.367 L5.787,11.105 C5.564,11.124 5.318,11.119 5.147,11.044 C5.147,11.044 5.298,11.688 5.885,12.204 L6.909,13.234 C6.294,13.592 5.218,14.040 3.802,13.926 L10.018,20.000 C12.154,19.999 14.290,19.885 16.423,19.657 C18.129,19.475 19.476,18.128 19.658,16.423 C19.911,14.050 20.023,11.673 19.996,9.297 L19.996,9.297 Z"/>
<path fill-rule="evenodd"  fill="rgb(255, 255, 255)"
 d="M16.198,6.147 C15.756,6.378 15.089,6.485 14.868,6.516 C14.867,6.506 14.865,6.495 14.863,6.485 C15.614,6.020 15.844,5.146 15.844,5.146 C15.379,5.412 14.969,5.559 14.660,5.641 C14.486,5.688 14.345,5.713 14.243,5.727 C13.775,5.247 13.121,4.949 12.397,4.949 C10.974,4.949 9.819,6.103 9.819,7.527 C9.819,7.578 9.821,7.629 9.824,7.680 C9.831,7.803 9.847,7.925 9.871,8.043 C9.182,8.032 6.694,7.821 4.633,5.427 C4.633,5.427 3.486,7.429 5.415,8.797 C5.415,8.797 4.633,8.773 4.218,8.480 C4.218,8.480 4.096,10.409 6.319,11.020 C6.319,11.020 5.537,11.215 5.146,11.044 C5.146,11.044 5.537,12.705 7.491,12.827 C7.491,12.827 6.090,14.110 3.801,13.926 C4.927,14.638 6.261,15.051 7.692,15.051 C11.714,15.051 14.976,11.790 14.976,7.767 C14.976,7.717 14.975,7.667 14.974,7.616 C14.975,7.587 14.976,7.557 14.976,7.527 C14.976,7.506 14.975,7.485 14.975,7.464 C15.719,6.969 16.198,6.147 16.198,6.147 L16.198,6.147 Z"/>
</svg>