<svg 
 xmlns="http://www.w3.org/2000/svg"
 xmlns:xlink="http://www.w3.org/1999/xlink"
 width="0.278in" height="0.278in">
<path fill-rule="evenodd"  fill="rgb(39, 59, 122)"
 d="M20.000,10.000 C20.000,15.523 15.523,20.000 10.000,20.000 C4.477,20.000 -0.000,15.523 -0.000,10.000 C-0.000,4.477 4.477,-0.000 10.000,-0.000 C15.523,-0.000 20.000,4.477 20.000,10.000 Z"/>
<path fill-rule="evenodd"  fill="rgb(18, 17, 73)"
 d="M19.775,12.115 L13.661,6.001 L8.563,6.408 L5.959,8.785 L6.294,13.956 L12.083,19.782 C15.923,18.968 18.949,15.951 19.775,12.115 Z"/>
<path fill-rule="evenodd"  fill="rgb(66, 133, 244)"
 d="M10.218,9.080 L10.218,10.997 L13.215,10.997 C12.790,12.368 11.512,13.365 10.000,13.365 C8.142,13.365 6.635,11.858 6.635,9.999 C6.635,8.141 8.142,6.634 10.000,6.634 C10.869,6.634 11.658,6.966 12.255,7.507 L13.661,6.001 C12.696,5.118 11.411,4.578 10.000,4.578 C7.006,4.578 4.579,7.005 4.579,9.999 C4.579,12.994 7.006,15.421 10.000,15.421 C12.994,15.421 15.422,12.994 15.422,9.999 C15.422,9.686 15.393,9.379 15.341,9.080 L10.218,9.080 Z"/>
<path fill-rule="evenodd"  fill="rgb(234, 67, 53)"
 d="M10.000,6.634 C10.869,6.634 11.658,6.966 12.255,7.507 L13.661,6.001 C12.696,5.118 11.411,4.578 10.000,4.578 C7.923,4.578 6.121,5.746 5.210,7.460 L6.864,8.785 C7.352,7.528 8.570,6.634 10.000,6.634 Z"/>
<path fill-rule="evenodd"  fill="rgb(251, 188, 5)"
 d="M6.635,10.000 C6.635,9.572 6.718,9.163 6.865,8.786 L5.210,7.461 C4.808,8.219 4.579,9.083 4.579,10.001 C4.579,10.922 4.809,11.791 5.216,12.551 L6.860,11.203 C6.717,10.829 6.635,10.425 6.635,10.000 Z"/>
<path fill-rule="evenodd"  fill="rgb(52, 168, 83)"
 d="M11.871,12.795 C11.336,13.154 10.694,13.366 10.001,13.366 C8.566,13.366 7.345,12.467 6.861,11.203 L5.216,12.551 C6.128,14.259 7.928,15.422 10.000,15.422 C11.346,15.422 12.576,14.931 13.524,14.119 L11.871,12.795 Z"/>
<path fill-rule="evenodd"  fill="rgb(66, 133, 244)"
 d="M15.422,10.000 C15.422,9.686 15.393,9.379 15.341,9.081 L10.218,9.081 L10.218,10.997 L13.215,10.997 C12.985,11.740 12.503,12.370 11.871,12.795 L13.524,14.118 C14.685,13.124 15.422,11.648 15.422,10.000 Z"/>
</svg>