<svg 
 xmlns="http://www.w3.org/2000/svg"
 xmlns:xlink="http://www.w3.org/1999/xlink"
 width="0.278in" height="0.278in">
<path fill-rule="evenodd"  fill="rgb(59, 89, 153)"
 d="M17.500,-0.000 L2.500,-0.000 C1.121,-0.000 -0.000,1.121 -0.000,2.500 L-0.000,17.500 C-0.000,18.878 1.121,20.000 2.500,20.000 L17.500,20.000 C18.878,20.000 20.000,18.878 20.000,17.500 L20.000,2.500 C20.000,1.121 18.878,-0.000 17.500,-0.000 Z"/>
<path fill-rule="evenodd"  fill="rgb(255, 255, 255)"
 d="M13.750,10.000 L13.750,7.500 C13.750,6.810 14.310,6.875 15.000,6.875 L16.250,6.875 L16.250,3.750 L13.750,3.750 C11.678,3.750 10.000,5.428 10.000,7.500 L10.000,10.000 L7.500,10.000 L7.500,13.125 L10.000,13.125 L10.000,20.000 L13.750,20.000 L13.750,13.125 L15.625,13.125 L16.875,10.000 L13.750,10.000 Z"/>
</svg>