<svg 
 xmlns="http://www.w3.org/2000/svg"
 xmlns:xlink="http://www.w3.org/1999/xlink"
 width="0.778in" height="0.667in">
<path fill-rule="evenodd"  fill="rgb(115, 230, 211)"
 d="M55.319,0.593 L36.238,15.615 L20.608,20.634 L0.594,2.065 L55.319,0.593 Z"/>
<path fill-rule="evenodd"  fill="rgb(243, 245, 249)"
 d="M15.295,21.698 L17.029,24.703 L4.911,31.699 L3.177,28.694 L15.295,21.698 Z"/>
<path fill-rule="evenodd"  fill="rgb(243, 245, 249)"
 d="M11.825,15.690 L13.560,18.694 L4.547,23.898 L2.812,20.893 L11.825,15.690 Z"/>
<path fill-rule="evenodd"  fill="rgb(225, 230, 240)"
 d="M18.764,27.708 L20.498,30.712 L11.485,35.916 L9.750,32.912 L18.764,27.708 Z"/>
<path fill-rule="evenodd"  fill="rgb(81, 204, 204)"
 d="M55.319,0.594 L20.608,20.634 L26.682,47.252 L55.319,0.594 Z"/>
<path fill-rule="evenodd"  fill="rgb(225, 230, 240)"
 d="M16.162,23.200 L17.029,24.702 L4.912,31.698 L4.044,30.196 L16.162,23.200 Z"/>
</svg>