<svg 
 xmlns="http://www.w3.org/2000/svg"
 xmlns:xlink="http://www.w3.org/1999/xlink"
 width="0.167in" height="0.278in">
<path fill-rule="evenodd"  fill="rgb(45, 116, 255)"
 d="M7.681,9.064 C7.090,8.894 6.499,8.808 5.924,8.808 C5.036,8.808 4.295,9.010 3.721,9.258 C4.275,7.235 5.605,3.744 8.256,3.351 C8.501,3.314 8.702,3.137 8.769,2.899 L9.348,0.831 C9.397,0.657 9.368,0.469 9.268,0.318 C9.168,0.166 9.008,0.065 8.828,0.040 C8.632,0.013 8.433,-0.000 8.235,-0.000 C5.054,-0.000 1.903,3.313 0.574,8.058 C-0.207,10.841 -0.436,15.026 1.487,17.660 C2.562,19.133 4.132,19.921 6.151,19.999 C6.160,19.999 6.168,20.000 6.176,20.000 C8.668,20.000 10.878,18.325 11.550,15.928 C11.951,14.495 11.770,12.992 11.038,11.695 C10.314,10.412 9.122,9.477 7.681,9.064 Z"/>
</svg>